<svg width="64" height="61" viewBox="0 0 64 61" fill="none" xmlns="http://www.w3.org/2000/svg">
<path d="M24.0914 58.3635C25.5475 58.3635 26.7278 57.1832 26.7278 55.7272C26.7278 54.2712 25.5475 53.0908 24.0914 53.0908C22.6354 53.0908 21.4551 54.2712 21.4551 55.7272C21.4551 57.1832 22.6354 58.3635 24.0914 58.3635Z" stroke="white" stroke-width="5.27273" stroke-linecap="round" stroke-linejoin="round"/>
<path d="M53.0914 58.3635C54.5475 58.3635 55.7278 57.1832 55.7278 55.7272C55.7278 54.2712 54.5475 53.0908 53.0914 53.0908C51.6354 53.0908 50.4551 54.2712 50.4551 55.7272C50.4551 57.1832 51.6354 58.3635 53.0914 58.3635Z" stroke="white" stroke-width="5.27273" stroke-linecap="round" stroke-linejoin="round"/>
<path d="M3 3H13.5455L20.6109 38.3009C20.852 39.5147 21.5123 40.605 22.4763 41.381C23.4402 42.1569 24.6464 42.5692 25.8836 42.5455H51.5091C52.7463 42.5692 53.9525 42.1569 54.9165 41.381C55.8804 40.605 56.5407 39.5147 56.7818 38.3009L61 16.1818H16.1818" stroke="white" stroke-width="5.27273" stroke-linecap="round" stroke-linejoin="round"/>
</svg>
