<svg width="254" height="254" viewBox="0 0 254 254" fill="none" xmlns="http://www.w3.org/2000/svg">
<g id="logo-orion">
<path fill-rule="evenodd" clip-rule="evenodd" d="M73.284 79.807L69.5169 81.375L67.6838 78.8255L66.969 82.6038L64.0547 84.4946L66.6508 85.9133L66.6121 89.2242L69.2613 86.5687L72.5563 86.4947L71.3337 83.9324L73.284 79.807ZM117.945 159.131L116.033 159.926L115.101 158.631L114.74 160.55L113.26 161.51L114.578 162.23L114.558 163.912L115.903 162.564L117.575 162.527L116.955 161.225L117.945 159.131ZM26.4001 100.614L21.2143 102.774L18.6906 99.2633L17.7074 104.465L13.696 107.068L17.2686 109.021L17.2154 113.58L20.8624 109.926L25.3974 109.823L23.7156 106.293L26.4001 100.614ZM105.433 133.307C105.433 133.472 105.347 133.591 105.175 133.663L104.46 133.965V131.919L105.175 131.617C105.347 131.544 105.433 131.591 105.433 131.755V133.307ZM105.724 129.98L102.646 131.277V138.497L104.46 137.732V135.371L105.724 134.838C106.739 134.41 107.247 133.731 107.247 132.8V130.731C107.247 129.803 106.739 129.552 105.724 129.98V129.98ZM111.67 133.127C111.67 133.291 111.583 133.408 111.409 133.477L110.971 133.652C110.796 133.721 110.709 133.673 110.709 133.509V129.596C110.709 129.43 110.796 129.313 110.971 129.244L111.409 129.069C111.583 129 111.67 129.048 111.67 129.213V133.127ZM111.964 127.443L110.417 128.058C109.393 128.466 108.881 129.135 108.881 130.065V134.496C108.881 135.424 109.393 135.686 110.417 135.278L111.964 134.663C112.987 134.256 113.5 133.586 113.5 132.658V128.227C113.5 127.297 112.987 127.037 111.964 127.443V127.443ZM100.567 135.498C100.35 135.363 99.9889 135.406 99.4827 135.633L98.5174 136.062C98.3454 136.139 98.2602 136.094 98.2602 135.928V134.86C98.2602 134.696 98.3454 134.576 98.5174 134.498L98.8145 134.367C98.9865 134.29 99.0714 134.335 99.0714 134.5V135.108L100.869 134.308V133.442C100.869 132.511 100.37 132.269 99.3705 132.714L97.9614 133.341C96.9623 133.785 96.4628 134.473 96.4628 135.401V136.886C96.4628 137.344 96.5671 137.647 96.7758 137.798C96.9848 137.949 97.343 137.913 97.8491 137.686L98.8353 137.247C99.0073 137.172 99.0925 137.215 99.0925 137.381V138.404C99.0925 138.569 99.0073 138.69 98.8353 138.765L98.5382 138.899C98.3665 138.974 98.281 138.93 98.281 138.765V138.158L96.4836 138.958V139.824C96.4836 140.753 96.9864 140.994 97.9937 140.546L99.3896 139.924C100.391 139.479 100.89 138.791 100.89 137.863V136.378C100.89 135.928 100.783 135.635 100.567 135.498V135.498ZM121.46 123.846V125.252L122.764 124.792V130.606L124.62 129.951V124.137L125.935 123.673V122.267L121.46 123.846ZM92.7469 141.543V140.014L94.5895 139.151V137.745L92.7469 138.608V137.135L94.885 136.134V134.728L90.9637 136.563V143.783L94.9767 141.906V140.501L92.7469 141.543ZM131.634 123.676C131.41 123.518 131.034 123.526 130.507 123.701L129.505 124.035C129.327 124.094 129.239 124.04 129.239 123.876V122.808C129.239 122.643 129.327 122.53 129.505 122.472L129.815 122.37C129.992 122.31 130.082 122.363 130.082 122.527V123.134L131.949 122.514V121.648C131.949 120.72 131.43 120.427 130.39 120.771L128.928 121.258C127.891 121.601 127.37 122.239 127.37 123.17V124.654C127.37 125.112 127.479 125.425 127.696 125.597C127.913 125.769 128.284 125.767 128.811 125.592L129.836 125.252C130.015 125.192 130.103 125.245 130.103 125.411V126.434C130.103 126.599 130.015 126.71 129.836 126.77L129.526 126.872C129.348 126.932 129.259 126.879 129.259 126.714V126.106L127.393 126.727V127.592C127.393 128.523 127.915 128.813 128.961 128.466L130.413 127.984C131.451 127.639 131.971 127.003 131.971 126.073V124.588C131.971 124.138 131.859 123.835 131.634 123.676V123.676ZM118.187 128.126C118.187 128.29 118.099 128.405 117.924 128.471L117.198 128.744V126.833L117.924 126.559C118.099 126.493 118.187 126.543 118.187 126.709V128.126ZM119.124 129.281C119.728 128.89 120.03 128.339 120.03 127.626V125.76C120.03 124.831 119.514 124.557 118.481 124.945L115.353 126.116V133.336L117.198 132.646V130.082L117.313 130.039L118.386 132.2L120.367 131.459L119.124 129.281ZM67.9922 113.945C62.5736 116.67 59.1628 122.226 59.1628 128.29V155.515C62.1992 153.68 65.2677 151.891 68.365 150.149C69.6275 149.439 70.4086 148.101 70.4086 146.652V112.742C69.6021 113.14 68.7955 113.542 67.9922 113.945V113.945ZM128.242 89.899V106.718C130.376 106.035 132.517 105.39 134.668 104.75V88.0227C132.517 88.6282 130.376 89.2548 128.242 89.899V89.899ZM67.9922 113.945C62.5736 116.67 59.1628 122.226 59.1628 128.29V155.515C62.1992 153.68 65.2677 151.891 68.365 150.149C69.6275 149.439 70.4086 148.101 70.4086 146.652V112.742C69.6021 113.14 68.7955 113.542 67.9922 113.945V113.945ZM131.634 123.676C131.41 123.518 131.034 123.526 130.507 123.701L129.505 124.035C129.327 124.094 129.239 124.04 129.239 123.876V122.808C129.239 122.643 129.327 122.53 129.505 122.472L129.815 122.37C129.992 122.31 130.082 122.363 130.082 122.527V123.134L131.949 122.514V121.648C131.949 120.72 131.43 120.427 130.39 120.771L128.928 121.258C127.891 121.601 127.37 122.239 127.37 123.17V124.654C127.37 125.112 127.479 125.425 127.696 125.597C127.913 125.769 128.284 125.767 128.811 125.592L129.836 125.252C130.015 125.192 130.103 125.245 130.103 125.411V126.434C130.103 126.599 130.015 126.71 129.836 126.77L129.526 126.872C129.348 126.932 129.259 126.879 129.259 126.714V126.106L127.393 126.727V127.592C127.393 128.523 127.915 128.813 128.961 128.466L130.413 127.984C131.451 127.639 131.971 127.003 131.971 126.073V124.588C131.971 124.138 131.859 123.835 131.634 123.676V123.676ZM121.46 123.846V125.252L122.764 124.792V130.606L124.62 129.951V124.137L125.935 123.673V122.267L121.46 123.846ZM118.187 128.126C118.187 128.29 118.099 128.405 117.924 128.471L117.198 128.744V126.833L117.924 126.559C118.099 126.493 118.187 126.543 118.187 126.709V128.126ZM119.124 129.281C119.728 128.89 120.03 128.339 120.03 127.626V125.76C120.03 124.831 119.514 124.557 118.481 124.945L115.353 126.116V133.336L117.198 132.646V130.082L117.313 130.039L118.386 132.2L120.367 131.459L119.124 129.281ZM111.67 133.127C111.67 133.291 111.583 133.408 111.409 133.477L110.971 133.652C110.796 133.721 110.709 133.673 110.709 133.509V129.596C110.709 129.43 110.796 129.313 110.971 129.244L111.409 129.069C111.583 129 111.67 129.048 111.67 129.213V133.127ZM111.964 127.443L110.417 128.058C109.393 128.466 108.881 129.135 108.881 130.065V134.496C108.881 135.424 109.393 135.686 110.417 135.278L111.964 134.663C112.987 134.256 113.5 133.586 113.5 132.658V128.227C113.5 127.297 112.987 127.037 111.964 127.443V127.443ZM105.433 133.307C105.433 133.472 105.347 133.591 105.175 133.663L104.46 133.965V131.919L105.175 131.617C105.347 131.544 105.433 131.591 105.433 131.755V133.307ZM105.724 129.98L102.646 131.277V138.497L104.46 137.732V135.371L105.724 134.838C106.739 134.41 107.247 133.731 107.247 132.8V130.731C107.247 129.803 106.739 129.552 105.724 129.98V129.98ZM100.567 135.498C100.35 135.363 99.9889 135.406 99.4827 135.633L98.5174 136.062C98.3454 136.139 98.2602 136.094 98.2602 135.928V134.86C98.2602 134.696 98.3454 134.576 98.5174 134.498L98.8145 134.367C98.9865 134.29 99.0714 134.335 99.0714 134.5V135.108L100.869 134.308V133.442C100.869 132.511 100.37 132.269 99.3705 132.714L97.9614 133.341C96.9623 133.785 96.4628 134.473 96.4628 135.401V136.886C96.4628 137.344 96.5671 137.647 96.7758 137.798C96.9848 137.949 97.343 137.913 97.8491 137.686L98.8353 137.247C99.0073 137.172 99.0925 137.215 99.0925 137.381V138.404C99.0925 138.569 99.0073 138.69 98.8353 138.765L98.5382 138.899C98.3665 138.974 98.281 138.93 98.281 138.765V138.158L96.4836 138.958V139.824C96.4836 140.753 96.9864 140.994 97.9937 140.546L99.3896 139.924C100.391 139.479 100.89 138.791 100.89 137.863V136.378C100.89 135.928 100.783 135.635 100.567 135.498V135.498ZM92.7469 141.543V140.014L94.5895 139.151V137.745L92.7469 138.608V137.135L94.885 136.134V134.728L90.9637 136.563V143.783L94.9767 141.906V140.501L92.7469 141.543ZM91.2928 103.198V111.979C92.6118 111.404 93.9354 110.836 95.2627 110.276C96.752 109.648 97.719 108.191 97.719 106.576V100.568C95.5661 101.425 93.4247 102.303 91.2928 103.198ZM128.242 89.899V106.718C130.376 106.035 132.517 105.39 134.668 104.75V88.0227C132.517 88.6282 130.376 89.2548 128.242 89.899V89.899ZM59.1628 155.515C62.1992 153.68 65.2677 151.891 68.365 150.149C69.6275 149.439 70.4086 148.101 70.4086 146.652V112.742C69.6021 113.14 68.7955 113.542 67.9922 113.945C62.5736 116.67 59.1628 122.226 59.1628 128.29V155.515ZM94.885 136.134V134.728L90.9637 136.563V143.783L94.9767 141.906V140.501L92.7469 141.543V140.014L94.5895 139.151V137.745L92.7469 138.608V137.135L94.885 136.134ZM97.719 106.576V100.568C95.5661 101.425 93.4247 102.303 91.2928 103.198V111.979C92.6118 111.404 93.9354 110.836 95.2627 110.276C96.752 109.648 97.719 108.191 97.719 106.576ZM96.7758 137.798C96.9848 137.949 97.343 137.913 97.8491 137.686L98.8353 137.247C99.0073 137.172 99.0925 137.215 99.0925 137.381V138.404C99.0925 138.569 99.0073 138.69 98.8353 138.765L98.5382 138.899C98.3665 138.974 98.281 138.93 98.281 138.765V138.158L96.4836 138.958V139.824C96.4836 140.753 96.9864 140.994 97.9937 140.546L99.3896 139.924C100.391 139.479 100.89 138.791 100.89 137.863V136.378C100.89 135.928 100.783 135.635 100.567 135.498C100.35 135.363 99.9889 135.406 99.4827 135.633L98.5174 136.062C98.3454 136.139 98.2602 136.094 98.2602 135.928V134.86C98.2602 134.696 98.3454 134.576 98.5174 134.498L98.8145 134.367C98.9865 134.29 99.0714 134.335 99.0714 134.5V135.108L100.869 134.308V133.442C100.869 132.511 100.37 132.269 99.3705 132.714L97.9614 133.341C96.9623 133.785 96.4628 134.473 96.4628 135.401V136.886C96.4628 137.344 96.5671 137.647 96.7758 137.798V137.798ZM104.46 131.919L105.175 131.617C105.347 131.544 105.433 131.591 105.433 131.755V133.307C105.433 133.472 105.347 133.591 105.175 133.663L104.46 133.965V131.919ZM104.46 135.371L105.724 134.838C106.739 134.41 107.247 133.731 107.247 132.8V130.731C107.247 129.803 106.739 129.552 105.724 129.98L102.646 131.277V138.497L104.46 137.732V135.371ZM110.709 129.596C110.709 129.43 110.796 129.313 110.971 129.244L111.409 129.069C111.583 129 111.67 129.048 111.67 129.213V133.127C111.67 133.291 111.583 133.408 111.409 133.477L110.971 133.652C110.796 133.721 110.709 133.673 110.709 133.509V129.596ZM110.417 135.278L111.964 134.663C112.987 134.256 113.5 133.586 113.5 132.658V128.227C113.5 127.297 112.987 127.037 111.964 127.443L110.417 128.058C109.393 128.466 108.881 129.135 108.881 130.065V134.496C108.881 135.424 109.393 135.686 110.417 135.278V135.278ZM117.198 126.833L117.924 126.559C118.099 126.493 118.187 126.543 118.187 126.709V128.126C118.187 128.29 118.099 128.405 117.924 128.471L117.198 128.744V126.833ZM117.198 130.082L117.313 130.039L118.386 132.2L120.367 131.459L119.124 129.281C119.728 128.89 120.03 128.339 120.03 127.626V125.76C120.03 124.831 119.514 124.557 118.481 124.945L115.353 126.116V133.336L117.198 132.646V130.082ZM122.764 130.606L124.62 129.951V124.137L125.935 123.673V122.267L121.46 123.846V125.252L122.764 124.792V130.606ZM127.696 125.597C127.913 125.769 128.284 125.767 128.811 125.592L129.836 125.252C130.015 125.192 130.103 125.245 130.103 125.411V126.434C130.103 126.599 130.015 126.71 129.836 126.77L129.526 126.872C129.348 126.932 129.259 126.879 129.259 126.714V126.106L127.393 126.727V127.592C127.393 128.523 127.915 128.813 128.961 128.466L130.413 127.984C131.451 127.639 131.971 127.003 131.971 126.073V124.588C131.971 124.138 131.859 123.835 131.634 123.676C131.41 123.518 131.034 123.526 130.507 123.701L129.505 124.035C129.327 124.094 129.239 124.04 129.239 123.876V122.808C129.239 122.643 129.327 122.53 129.505 122.472L129.815 122.37C129.992 122.31 130.082 122.363 130.082 122.527V123.134L131.949 122.514V121.648C131.949 120.72 131.43 120.427 130.39 120.771L128.928 121.258C127.891 121.601 127.37 122.239 127.37 123.17V124.654C127.37 125.112 127.479 125.425 127.696 125.597V125.597ZM128.242 106.718C130.376 106.035 132.517 105.39 134.668 104.75V88.0227C132.517 88.6282 130.376 89.2548 128.242 89.899V106.718ZM174.831 77.9482V70.8845C174.831 70.8845 199.772 66.8232 222.525 66.1051C194.912 71.2813 174.831 77.9482 174.831 77.9482ZM168.405 104.696C165.717 105.23 163.039 105.792 160.372 106.386L153.946 91.6838V104.735C153.946 106.579 152.69 108.183 150.904 108.633C149.234 109.052 147.572 109.484 145.914 109.927V76.7597C146.315 76.6616 146.716 76.5652 147.117 76.4688C147.517 76.3724 147.919 76.276 148.32 76.1812C148.722 76.0861 149.125 75.9914 149.527 75.8983C149.929 75.8039 150.332 75.7104 150.734 75.6186C151.098 75.5354 151.464 75.4519 151.829 75.3684C152.534 75.2076 153.24 75.0501 153.946 74.8943L160.372 90.9595V73.532L160.637 73.4789C161.005 73.4049 161.375 73.3313 161.743 73.2573C162.482 73.1094 163.221 72.9648 163.96 72.8219C164.329 72.7512 164.699 72.6806 165.07 72.6099C165.439 72.5392 165.81 72.4702 166.18 72.4009C166.527 72.3352 166.872 72.2708 167.219 72.2064C167.614 72.1345 168.01 72.0622 168.405 71.9915V104.696ZM168.405 108.279C168.405 115.667 163.365 122.1 156.192 123.873C130.605 130.203 106.171 139.453 83.2604 151.251V146.975C83.2604 140.7 86.912 134.995 92.6168 132.377C116.526 121.401 141.915 113.38 168.405 108.003V108.279ZM83.2604 97.9027C83.8596 97.6409 84.4589 97.3807 85.0598 97.1219C85.794 96.8036 86.5296 96.4906 87.2656 96.1789C87.913 95.9043 88.5618 95.6309 89.2125 95.3611C89.2881 95.3291 89.3634 95.2971 89.439 95.2664C90.0478 95.0125 90.6569 94.7602 91.2671 94.5113C91.2753 94.5064 91.2849 94.5034 91.2928 94.5001C91.2945 94.4984 91.2978 94.4984 91.2994 94.4968C91.7026 94.3314 92.1057 94.1676 92.5105 94.0039C93.7604 93.4944 95.0134 92.9946 96.27 92.5016C96.7068 92.328 97.1452 92.1563 97.584 91.9859C97.6289 91.9681 97.6741 91.9506 97.719 91.9328C98.1334 91.7707 98.5494 91.6099 98.9657 91.4511C99.2949 91.324 99.6241 91.1972 99.9535 91.0701C100.463 90.8756 100.972 90.6828 101.481 90.492C101.767 90.3843 102.055 90.2764 102.341 90.1691C102.728 90.0228 103.115 89.8782 103.504 89.7369C104.251 89.4572 105.001 89.1826 105.751 88.9112V107.596C105.751 111.873 103.154 115.72 99.1889 117.319L99.0202 117.386L107.212 122.709C104.518 123.791 102.334 124.699 99.6739 125.846L92.0321 120.374L91.2928 120.7V126.934C91.2928 128.499 90.3852 129.919 88.9652 130.577C87.0549 131.462 85.1529 132.365 83.2604 133.286V97.9027ZM108.964 90.6283C108.964 88.9112 110.057 87.3832 111.682 86.8292C114.018 86.0338 116.997 85.0202 116.997 85.0202V116.217C116.997 117.895 115.951 119.396 114.377 119.981C112.566 120.654 110.762 121.341 108.964 122.044V90.6283ZM120.21 83.9792C120.743 83.8089 121.28 83.6385 121.815 83.4715C122.35 83.3028 122.886 83.1357 123.423 82.9703C123.82 82.8481 124.218 82.7243 124.615 82.6038C125.013 82.482 125.412 82.3615 125.81 82.241C126.208 82.1205 126.607 82 127.005 81.8811C127.402 81.7622 127.797 81.6447 128.194 81.5291C128.21 81.5229 128.226 81.5196 128.242 81.5146C129.842 81.0425 131.447 80.5796 133.057 80.1283C133.593 79.9774 134.132 79.8278 134.668 79.6802C134.901 79.6159 135.134 79.5515 135.369 79.4874C135.603 79.4231 135.838 79.3587 136.071 79.2963C136.151 79.2735 136.23 79.2527 136.31 79.2302C136.418 79.2015 136.526 79.1725 136.633 79.1434C137.439 78.9252 138.246 78.7099 139.056 78.4976C139.867 78.2824 140.68 78.072 141.494 77.8647C141.633 77.8294 141.771 77.7924 141.909 77.7587C142.172 77.6914 142.436 77.6253 142.701 77.558V110.803C135.097 112.914 127.596 115.274 120.21 117.871V83.9792ZM80.0473 148.106C80.0473 151.042 78.4457 153.746 75.8672 155.153C70.4823 158.095 60.4996 163.779 49.5241 171.186V129.088C49.5241 120.024 54.6115 111.722 62.6909 107.612C72.6078 102.569 80.0473 99.3244 80.0473 99.3244V148.106ZM237.484 60.9999C174.2 60.9999 114.431 76.0591 61.568 102.788C58.5203 104.33 55.4954 105.909 52.4942 107.527C53.0935 106.17 53.8759 104.912 54.8093 103.784C52.8832 100.55 49.368 93.051 49.5241 81.4826C43.2617 92.6912 38.375 104.772 35.0879 117.497C35.0879 117.497 33.1522 124.379 44.0649 130.583C44.0649 130.583 26.5784 135.85 7.03368 136.248C7.02245 136.256 7.01123 136.264 7 136.272C14.3946 141.521 22.1942 146.237 30.3406 150.368C30.2782 152.165 30.2462 153.971 30.2462 155.783C30.2462 168.476 31.7946 180.808 34.7168 192.596C40.5742 187.153 46.5325 181.818 52.5906 176.594L59.4457 180.022C66.6798 175.334 73.7644 171.103 80.6706 167.281C85.6171 164.543 90.4734 162.015 95.2273 159.679C92.0512 162.175 89.1996 165.066 86.7432 168.275C94.464 169.408 102.339 170.064 110.34 170.209C106.735 166.036 103.2 161.8 99.7399 157.502C129.998 143.196 155.91 136.624 174.749 132.956C181.324 131.676 186.076 125.925 186.076 119.226V87.8107C206.01 77.8888 226.533 68.9729 247.578 61.1267C244.224 61.0431 240.86 60.9999 237.484 60.9999V60.9999ZM128.242 89.899V106.718C130.376 106.035 132.517 105.39 134.668 104.75V88.0227C132.517 88.6282 130.376 89.2548 128.242 89.899V89.899ZM91.2928 103.198V111.979C92.6118 111.404 93.9354 110.836 95.2627 110.276C96.752 109.648 97.719 108.191 97.719 106.576V100.568C95.5661 101.425 93.4247 102.303 91.2928 103.198V103.198ZM92.7469 140.014L94.5895 139.151V137.745L92.7469 138.608V137.135L94.885 136.134V134.728L90.9637 136.563V143.783L94.9767 141.906V140.501L92.7469 141.543V140.014ZM100.567 135.498C100.35 135.363 99.9889 135.406 99.4827 135.633L98.5174 136.062C98.3454 136.139 98.2602 136.094 98.2602 135.928V134.86C98.2602 134.696 98.3454 134.576 98.5174 134.498L98.8145 134.367C98.9865 134.29 99.0714 134.335 99.0714 134.5V135.108L100.869 134.308V133.442C100.869 132.511 100.37 132.269 99.3705 132.714L97.9614 133.341C96.9623 133.785 96.4628 134.473 96.4628 135.401V136.886C96.4628 137.344 96.5671 137.647 96.7758 137.798C96.9848 137.949 97.343 137.913 97.8491 137.686L98.8353 137.247C99.0073 137.172 99.0925 137.215 99.0925 137.381V138.404C99.0925 138.569 99.0073 138.69 98.8353 138.765L98.5382 138.899C98.3665 138.974 98.281 138.93 98.281 138.765V138.158L96.4836 138.958V139.824C96.4836 140.753 96.9864 140.994 97.9937 140.546L99.3896 139.924C100.391 139.479 100.89 138.791 100.89 137.863V136.378C100.89 135.928 100.783 135.635 100.567 135.498V135.498ZM105.433 133.307C105.433 133.472 105.347 133.591 105.175 133.663L104.46 133.965V131.919L105.175 131.617C105.347 131.544 105.433 131.591 105.433 131.755V133.307ZM105.724 129.98L102.646 131.277V138.497L104.46 137.732V135.371L105.724 134.838C106.739 134.41 107.247 133.731 107.247 132.8V130.731C107.247 129.803 106.739 129.552 105.724 129.98V129.98ZM111.67 133.127C111.67 133.291 111.583 133.408 111.409 133.477L110.971 133.652C110.796 133.721 110.709 133.673 110.709 133.509V129.596C110.709 129.43 110.796 129.313 110.971 129.244L111.409 129.069C111.583 129 111.67 129.048 111.67 129.213V133.127ZM111.964 127.443L110.417 128.058C109.393 128.466 108.881 129.135 108.881 130.065V134.496C108.881 135.424 109.393 135.686 110.417 135.278L111.964 134.663C112.987 134.256 113.5 133.586 113.5 132.658V128.227C113.5 127.297 112.987 127.037 111.964 127.443V127.443ZM118.187 128.126C118.187 128.29 118.099 128.405 117.924 128.471L117.198 128.744V126.833L117.924 126.559C118.099 126.493 118.187 126.543 118.187 126.709V128.126ZM120.03 127.626V125.76C120.03 124.831 119.514 124.557 118.481 124.945L115.353 126.116V133.336L117.198 132.646V130.082L117.313 130.039L118.386 132.2L120.367 131.459L119.124 129.281C119.728 128.89 120.03 128.339 120.03 127.626V127.626ZM121.46 125.252L122.764 124.792V130.606L124.62 129.951V124.137L125.935 123.673V122.267L121.46 123.846V125.252ZM131.634 123.676C131.41 123.518 131.034 123.526 130.507 123.701L129.505 124.035C129.327 124.094 129.239 124.04 129.239 123.876V122.808C129.239 122.643 129.327 122.53 129.505 122.472L129.815 122.37C129.992 122.31 130.082 122.363 130.082 122.527V123.134L131.949 122.514V121.648C131.949 120.72 131.43 120.427 130.39 120.771L128.928 121.258C127.891 121.601 127.37 122.239 127.37 123.17V124.654C127.37 125.112 127.479 125.425 127.696 125.597C127.913 125.769 128.284 125.767 128.811 125.592L129.836 125.252C130.015 125.192 130.103 125.245 130.103 125.411V126.434C130.103 126.599 130.015 126.71 129.836 126.77L129.526 126.872C129.348 126.932 129.259 126.879 129.259 126.714V126.106L127.393 126.727V127.592C127.393 128.523 127.915 128.813 128.961 128.466L130.413 127.984C131.451 127.639 131.971 127.003 131.971 126.073V124.588C131.971 124.138 131.859 123.835 131.634 123.676V123.676ZM67.9922 113.945C62.5736 116.67 59.1628 122.226 59.1628 128.29V155.515C62.1992 153.68 65.2677 151.891 68.365 150.149C69.6275 149.439 70.4086 148.101 70.4086 146.652V112.742C69.6021 113.14 68.7955 113.542 67.9922 113.945V113.945ZM128.242 89.899V106.718C130.376 106.035 132.517 105.39 134.668 104.75V88.0227C132.517 88.6282 130.376 89.2548 128.242 89.899V89.899ZM131.634 123.676C131.41 123.518 131.034 123.526 130.507 123.701L129.505 124.035C129.327 124.094 129.239 124.04 129.239 123.876V122.808C129.239 122.643 129.327 122.53 129.505 122.472L129.815 122.37C129.992 122.31 130.082 122.363 130.082 122.527V123.134L131.949 122.514V121.648C131.949 120.72 131.43 120.427 130.39 120.771L128.928 121.258C127.891 121.601 127.37 122.239 127.37 123.17V124.654C127.37 125.112 127.479 125.425 127.696 125.597C127.913 125.769 128.284 125.767 128.811 125.592L129.836 125.252C130.015 125.192 130.103 125.245 130.103 125.411V126.434C130.103 126.599 130.015 126.71 129.836 126.77L129.526 126.872C129.348 126.932 129.259 126.879 129.259 126.714V126.106L127.393 126.727V127.592C127.393 128.523 127.915 128.813 128.961 128.466L130.413 127.984C131.451 127.639 131.971 127.003 131.971 126.073V124.588C131.971 124.138 131.859 123.835 131.634 123.676V123.676ZM121.46 123.846V125.252L122.764 124.792V130.606L124.62 129.951V124.137L125.935 123.673V122.267L121.46 123.846ZM118.187 128.126C118.187 128.29 118.099 128.405 117.924 128.471L117.198 128.744V126.833L117.924 126.559C118.099 126.493 118.187 126.543 118.187 126.709V128.126ZM119.124 129.281C119.728 128.89 120.03 128.339 120.03 127.626V125.76C120.03 124.831 119.514 124.557 118.481 124.945L115.353 126.116V133.336L117.198 132.646V130.082L117.313 130.039L118.386 132.2L120.367 131.459L119.124 129.281ZM111.67 133.127C111.67 133.291 111.583 133.408 111.409 133.477L110.971 133.652C110.796 133.721 110.709 133.673 110.709 133.509V129.596C110.709 129.43 110.796 129.313 110.971 129.244L111.409 129.069C111.583 129 111.67 129.048 111.67 129.213V133.127ZM111.964 127.443L110.417 128.058C109.393 128.466 108.881 129.135 108.881 130.065V134.496C108.881 135.424 109.393 135.686 110.417 135.278L111.964 134.663C112.987 134.256 113.5 133.586 113.5 132.658V128.227C113.5 127.297 112.987 127.037 111.964 127.443V127.443ZM105.433 133.307C105.433 133.472 105.347 133.591 105.175 133.663L104.46 133.965V131.919L105.175 131.617C105.347 131.544 105.433 131.591 105.433 131.755V133.307ZM105.724 129.98L102.646 131.277V138.497L104.46 137.732V135.371L105.724 134.838C106.739 134.41 107.247 133.731 107.247 132.8V130.731C107.247 129.803 106.739 129.552 105.724 129.98V129.98ZM100.567 135.498C100.35 135.363 99.9889 135.406 99.4827 135.633L98.5174 136.062C98.3454 136.139 98.2602 136.094 98.2602 135.928V134.86C98.2602 134.696 98.3454 134.576 98.5174 134.498L98.8145 134.367C98.9865 134.29 99.0714 134.335 99.0714 134.5V135.108L100.869 134.308V133.442C100.869 132.511 100.37 132.269 99.3705 132.714L97.9614 133.341C96.9623 133.785 96.4628 134.473 96.4628 135.401V136.886C96.4628 137.344 96.5671 137.647 96.7758 137.798C96.9848 137.949 97.343 137.913 97.8491 137.686L98.8353 137.247C99.0073 137.172 99.0925 137.215 99.0925 137.381V138.404C99.0925 138.569 99.0073 138.69 98.8353 138.765L98.5382 138.899C98.3665 138.974 98.281 138.93 98.281 138.765V138.158L96.4836 138.958V139.824C96.4836 140.753 96.9864 140.994 97.9937 140.546L99.3896 139.924C100.391 139.479 100.89 138.791 100.89 137.863V136.378C100.89 135.928 100.783 135.635 100.567 135.498V135.498ZM91.2928 103.198V111.979C92.6118 111.404 93.9354 110.836 95.2627 110.276C96.752 109.648 97.719 108.191 97.719 106.576V100.568C95.5661 101.425 93.4247 102.303 91.2928 103.198V103.198ZM92.7469 141.543V140.014L94.5895 139.151V137.745L92.7469 138.608V137.135L94.885 136.134V134.728L90.9637 136.563V143.783L94.9767 141.906V140.501L92.7469 141.543ZM67.9922 113.945C62.5736 116.67 59.1628 122.226 59.1628 128.29V155.515C62.1992 153.68 65.2677 151.891 68.365 150.149C69.6275 149.439 70.4086 148.101 70.4086 146.652V112.742C69.6021 113.14 68.7955 113.542 67.9922 113.945V113.945ZM91.2928 103.198V111.979C92.6118 111.404 93.9354 110.836 95.2627 110.276C96.752 109.648 97.719 108.191 97.719 106.576V100.568C95.5661 101.425 93.4247 102.303 91.2928 103.198" fill="#EDF1F7" stroke="#EDF1F7" stroke-width="0.5" stroke-linecap="round" stroke-linejoin="round"/>
</g>
</svg>
