<svg width="74" height="41" viewBox="0 0 74 41" fill="none" xmlns="http://www.w3.org/2000/svg">
<path d="M16.3824 28.458C16.3824 28.458 23.2457 30.7409 27.2284 31.2923L21.3897 26.9775C23.174 23.8367 28.2474 18.829 28.2474 18.829C21.7578 22.5846 16.3824 28.458 16.3824 28.458ZM32.7278 9.38585C32.7273 9.38585 32.7273 9.38636 32.7268 9.38636C32.724 9.38778 32.7209 9.3888 32.718 9.39032C32.4462 9.50497 32.1788 9.62156 31.915 9.74017C24.5092 13.0006 21.3224 15.0641 21.3224 15.0641L24.7637 15.1066C24.7637 15.1066 20.3885 18.2691 16.9779 23.2096C16.9779 23.2096 34.2296 8.44992 62.7383 2.25724C62.7383 2.25724 49.2022 2.47071 33.2442 9.17096C33.0708 9.24154 32.8983 9.31324 32.7278 9.38585ZM25.7806 26.1695C27.7038 28.709 29.7067 31.1842 31.7865 33.5921C27.2156 33.5087 22.7772 32.8855 18.531 31.7836C15.0987 34.5705 11.7617 37.4707 8.52549 40.478C7.62663 36.852 7.15034 33.059 7.15034 29.1547C7.15034 28.5973 7.16019 28.0419 7.17948 27.4889C4.67363 26.2185 2.27461 24.7677 0 23.1533L0.010359 23.1459C6.02217 23.0233 11.4005 21.4035 11.4005 21.4035C8.04422 19.4951 8.63963 17.3782 8.63963 17.3782C9.64919 13.4689 11.15 9.75744 13.0727 6.31373C13.0075 11.2003 15.071 13.7264 15.0744 13.7358C15.6417 13.4379 16.2119 13.1439 16.7847 12.8537C33.0451 4.63219 51.4293 -3.8147e-06 70.8953 -3.8147e-06C71.9335 -3.8147e-06 72.9682 0.0134048 74 0.0390968C56.6411 6.51044 40.437 15.3517 25.7806 26.1695ZM5.96683 12.1857L4.37171 12.8494L3.59543 11.7696L3.293 13.3696L2.05912 14.1707L3.15814 14.7711L3.14179 16.1739L4.26356 15.0492L5.65901 15.0182L5.14159 13.9325L5.96683 12.1857ZM20.3879 5.78504L19.2292 6.26732L18.6654 5.48312L18.446 6.64531L17.5496 7.22691L18.3477 7.66328L18.3363 8.68218L19.1506 7.86538L20.1641 7.84263L19.7887 7.05396L20.3879 5.78504ZM31.2296 26.2823L30.6416 26.5268L30.3549 26.1286L30.2433 26.7185L29.7881 27.0141L30.1938 27.2354L30.1879 27.7529L30.6016 27.3382L31.1159 27.3268L30.9252 26.9261L31.2296 26.2823Z" fill="white"/>
</svg>
