<svg width="251" height="163" viewBox="0 0 251 163" fill="none" xmlns="http://www.w3.org/2000/svg">
<path d="M111.536 97.2118C111.233 97.0193 110.723 97.0827 110.007 97.4023L108.645 98.0071C108.403 98.1134 108.283 98.0524 108.283 97.8189V96.3124C108.283 96.0813 108.403 95.9113 108.645 95.8026L109.064 95.6168C109.307 95.5081 109.427 95.5715 109.427 95.8026V96.6591L111.962 95.5306V94.3093C111.962 92.9999 111.258 92.6579 109.848 93.2855L107.863 94.169C106.452 94.7967 105.747 95.7663 105.747 97.0757V99.1693C105.747 99.8151 105.895 100.243 106.189 100.456C106.484 100.669 106.989 100.615 107.703 100.297L109.094 99.679C109.336 99.5704 109.456 99.6338 109.456 99.8669V101.31C109.456 101.541 109.336 101.711 109.094 101.82L108.675 102.006C108.432 102.115 108.312 102.051 108.312 101.82V100.964L105.777 102.092V103.313C105.777 104.623 106.486 104.963 107.907 104.33L109.878 103.453C111.287 102.826 111.991 101.856 111.991 100.547V98.4535C111.991 97.8189 111.84 97.4043 111.536 97.2118ZM100.507 103.581L103.106 102.364V100.381L100.507 101.598V99.5206L103.523 98.1091V96.1265L97.9924 98.714V108.895L103.654 106.247V104.265L100.507 105.737V103.581ZM53.1446 87.0458V125.441C57.4265 122.854 61.7538 120.33 66.1218 117.874C67.9027 116.873 69.0038 114.986 69.0038 112.942V65.1193C67.8664 65.6813 66.7293 66.2475 65.5962 66.8164C57.9544 70.6587 53.1446 78.4957 53.1446 87.0458ZM136.386 84.8166C136.386 84.5832 136.261 84.5129 136.014 84.606L134.99 84.989V87.685L136.014 87.302C136.261 87.2093 136.386 87.0459 136.386 86.8147V84.8166ZM137.706 88.4437L139.46 91.5139L136.667 92.5605L135.153 89.5108L134.99 89.5722V93.1878L132.389 94.1624V83.9807L136.8 82.3289C138.257 81.7831 138.984 82.1658 138.984 83.4775V86.1102C138.984 87.1139 138.558 87.8934 137.706 88.4437ZM141.001 82.7617L142.84 82.1139V90.3128L145.459 89.3886V81.1895L147.312 80.5348V78.5522L141.001 80.7794V82.7617ZM155.349 80.5391C155.034 80.3172 154.504 80.3284 153.762 80.5754L152.347 81.0446C152.095 81.1281 151.971 81.0535 151.971 80.8224V79.3155C151.971 79.0824 152.095 78.9236 152.347 78.8398L152.784 78.6951C153.033 78.6133 153.16 78.6882 153.16 78.9193V79.7754L155.793 78.9012V77.6799C155.793 76.3682 155.061 75.9581 153.595 76.4428L151.534 77.1292C150.07 77.6142 149.336 78.5136 149.336 79.8253V81.9188C149.336 82.5623 149.49 83.0064 149.796 83.2487C150.102 83.4914 150.627 83.489 151.368 83.2418L152.813 82.7617C153.065 82.6778 153.19 82.7528 153.19 82.9862V84.429C153.19 84.6605 153.065 84.8189 152.813 84.9028L152.376 85.0477C152.127 85.1316 152 85.057 152 84.8235V83.9671L149.367 84.8417V86.0626C149.367 87.3744 150.104 87.7847 151.579 87.2951L153.627 86.6157C155.09 86.1283 155.824 85.229 155.824 83.9192V81.826C155.824 81.1918 155.666 80.7613 155.349 80.5391ZM118.399 91.9329C118.399 91.6994 118.279 91.636 118.034 91.7381L117.026 92.164V95.0505L118.034 94.6243C118.279 94.5223 118.399 94.3549 118.399 94.1215V91.9329ZM120.957 90.4897V93.408C120.957 94.7197 120.241 95.6755 118.809 96.2807L117.026 97.0328V100.363L114.468 101.439V91.2577L118.809 89.4293C120.241 88.8244 120.957 89.18 120.957 90.4897ZM127.196 88.3487C127.196 88.1156 127.071 88.0475 126.827 88.1449L126.208 88.3919C125.961 88.4893 125.839 88.6547 125.839 88.8878V94.4067C125.839 94.6382 125.961 94.7062 126.208 94.6085L126.827 94.3618C127.071 94.2641 127.196 94.0987 127.196 93.8679V88.3487ZM129.774 86.9577V93.2063C129.774 94.5157 129.052 95.458 127.609 96.0338L125.427 96.9014C123.983 97.4769 123.261 97.1078 123.261 95.798V89.5494C123.261 88.2377 123.983 87.2951 125.427 86.7197L127.609 85.852C129.052 85.2765 129.774 85.6456 129.774 86.9577ZM107.519 56.424V47.9504C104.483 49.1601 101.463 50.3976 98.4569 51.6594V64.0434C100.319 63.2322 102.184 62.4302 104.057 61.6418C106.155 60.756 107.519 58.7007 107.519 56.424ZM35.8555 44.0671L40.5002 43.9631L38.7781 40.3472L41.5286 34.5292L36.2157 36.7402L33.6309 33.1448L32.6226 38.4736L28.5128 41.1399L32.1739 43.1407L32.1195 47.8124L35.8555 44.0671ZM60.0298 31.4115L62.0325 29.4044L64.5226 29.3476L63.5981 27.4106L65.0729 24.2929L62.225 25.4779L60.841 23.5497L60.2995 26.4069L58.097 27.8365L60.0591 28.9082L60.0298 31.4115ZM10.9292 71.4495L7.3701 66.4991L5.98343 73.8352L0.323853 77.5076L5.36505 80.2604L5.2901 86.6926L10.433 81.5362L16.8288 81.3932L14.457 76.4157L18.2429 68.4067L10.9292 71.4495ZM220.46 107.944L219.076 106.016L218.537 108.871L216.334 110.3L218.294 111.374L218.267 113.876L220.268 111.87L222.757 111.814L221.835 109.877L223.308 106.759L220.46 107.944ZM250.294 96.6634L244.981 98.8748L242.396 95.279L241.388 100.608L237.278 103.274L240.939 105.275L240.885 109.947L244.62 106.202L249.267 106.098L247.543 102.481L250.294 96.6634ZM76.7024 124.932C80.3385 122.947 82.5974 119.134 82.5974 114.992V46.197C82.5974 46.197 72.1053 50.7736 58.1198 57.8852C46.726 63.6805 39.5507 75.3893 39.5507 88.172V147.542C55.0295 137.096 69.1081 129.08 76.7024 124.932ZM87.1289 119.428C119.439 102.79 153.899 89.7442 189.983 80.8177C200.099 78.3168 207.206 69.245 207.206 58.8255V58.4336C169.851 66.0167 134.043 77.3309 100.324 92.8098C92.2806 96.5026 87.1289 104.548 87.1289 113.397V119.428ZM87.1289 94.0921C89.7975 92.7939 92.4801 91.5205 95.1761 90.2698C97.1766 89.3434 98.4569 87.3407 98.4569 85.1339V76.3431L99.4989 75.8832L110.277 83.6C114.028 81.9825 117.107 80.6999 120.907 79.1729L109.354 71.6694L109.592 71.5743C115.186 69.3176 118.848 63.8915 118.848 57.8625V31.5112C117.789 31.8942 116.731 32.2814 115.678 32.6756C115.129 32.8751 114.583 33.0791 114.037 33.2851C113.634 33.437 113.229 33.5889 112.825 33.7407C112.107 34.0101 111.389 34.2822 110.671 34.5562C110.206 34.7352 109.742 34.9141 109.277 35.0934C108.691 35.3176 108.104 35.5441 107.519 35.7729C107.456 35.7976 107.392 35.8227 107.329 35.8478C106.711 36.0878 106.092 36.3302 105.476 36.5748C103.704 37.2705 101.937 37.975 100.174 38.6931C99.6032 38.9246 99.0344 39.1553 98.4658 39.3888C98.4635 39.3911 98.4589 39.3911 98.4569 39.3934C98.4454 39.398 98.4318 39.4023 98.4206 39.4092C97.5596 39.7602 96.7008 40.1161 95.8424 40.474C95.7358 40.5169 95.6295 40.5625 95.5228 40.6077C94.6053 40.9884 93.6901 41.3737 92.7769 41.7609C91.7392 42.2004 90.7018 42.6422 89.6661 43.0908C88.8189 43.4557 87.9737 43.8225 87.1289 44.1919V94.0921ZM123.379 78.2372C125.914 77.2471 128.458 76.2777 131.011 75.3282C133.232 74.5034 134.707 72.3875 134.707 70.0176V26.0239C134.707 26.0239 130.506 27.4512 127.212 28.5751C124.919 29.3569 123.379 31.5112 123.379 33.9332V78.2372ZM139.238 72.3535C149.655 68.69 160.233 65.3617 170.956 62.3846V15.5001C170.583 15.5952 170.211 15.6883 169.84 15.7834C169.645 15.8309 169.45 15.8828 169.255 15.933C168.106 16.2252 166.96 16.522 165.816 16.8254C164.674 17.1245 163.536 17.4283 162.399 17.7363C162.248 17.7772 162.096 17.8178 161.944 17.8588C161.831 17.8905 161.72 17.9199 161.606 17.9516C161.278 18.04 160.947 18.1305 160.616 18.2213C160.285 18.3118 159.957 18.4022 159.628 18.493C158.872 18.7013 158.113 18.9123 157.356 19.1249C155.086 19.7618 152.823 20.4142 150.566 21.0805C150.543 21.0871 150.521 21.0917 150.498 21.1009C149.938 21.2637 149.381 21.4291 148.821 21.5968C148.259 21.7646 147.697 21.9346 147.136 22.1043C146.574 22.2743 146.012 22.4444 145.45 22.6167C144.89 22.7864 144.329 22.9607 143.769 23.1331C143.012 23.3661 142.255 23.6019 141.501 23.8399C140.747 24.0753 139.99 24.3157 139.238 24.556V72.3535ZM175.488 61.1499C177.826 60.5245 180.173 59.9154 182.525 59.3241C185.044 58.6872 186.816 56.4286 186.816 53.8276V35.4219L195.878 56.1565C199.639 55.3183 203.416 54.5252 207.206 53.7731V7.64961C206.649 7.74965 206.092 7.85133 205.534 7.95335C205.045 8.04382 204.558 8.13461 204.068 8.22739C203.547 8.32478 203.024 8.42252 202.503 8.52222C201.98 8.6216 201.459 8.72165 200.937 8.82101C199.895 9.02275 198.853 9.22678 197.811 9.4351C197.292 9.53944 196.771 9.64343 196.252 9.74777L195.878 9.82272V34.3997L186.816 11.7436C185.819 11.9635 184.824 12.1857 183.83 12.4122C183.315 12.53 182.799 12.6479 182.285 12.7657C181.718 12.8948 181.149 13.0262 180.583 13.1596C180.017 13.291 179.448 13.4247 178.882 13.5585C178.315 13.6922 177.749 13.8282 177.185 13.9639C176.618 14.0999 176.054 14.2359 175.488 14.374V61.1499ZM209.866 0.275192L232.128 11.4062V74.2634C232.128 83.7109 225.426 91.8219 216.153 93.6276C178.408 100.973 120.533 116.594 53.5431 160.003L49.6532 162.59L32.754 154.14V86.4251C32.754 72.2221 40.7155 59.2151 53.3642 52.7493C74.8014 41.7903 96.8596 32.1276 119.538 24.0347C142.299 15.9125 165.648 9.28786 189.285 4.25162C195.79 2.86462 202.317 1.59846 208.867 0.447525H208.874C209.204 0.388428 209.535 0.331985 209.866 0.275192ZM150.566 32.9044C153.575 31.9962 156.595 31.1123 159.628 30.2582V53.8481C156.595 54.752 153.575 55.6603 150.566 56.6234V32.9044Z" fill="white"/>
</svg>
